# xmcd CD database file
#
# Track frame offsets:
#	183
#	22213
#	60288
#	89888
#	121573
#	145255
#	168318
#	187908
#	210700
#	243625
#
# Disc length: 3436 seconds
#
# Revision: 1
# Processed by: cddbd v1.5.1PL0 Copyright (c) Steve Scherf et al.
# Submitted via: CDex 1.51
#
DISCID=890d6a0a
DTITLE=Christian Escoudé - IN L.A.
DYEAR=1993
DGENRE=Jazz
TTITLE0=Just One Of Those Things
TTITLE1=With A Song In My Heart
TTITLE2=I Didn't Know What Time It Was
TTITLE3=Laura
TTITLE4=I Won't Dance
TTITLE5=A Foggy Day
TTITLE6=Passarim
TTITLE7=Moment's Notice
TTITLE8=Twilight With You
TTITLE9=When You Wish Upon A Star
EXTD=YEAR: 1993
EXTT0=
EXTT1=
EXTT2=
EXTT3=
EXTT4=
EXTT5=
EXTT6=
EXTT7=
EXTT8=
EXTT9=
PLAYORDER=
